name rise30.2954peak35.7071fall66.7804.mot
datacolumns 19
datarows 21
range 6.37331000000000 6.40664300000000
endheader
time	ground_force1_vx	ground_force1_vy	ground_force1_vz	ground_force1_px	ground_force1_py	ground_force1_pz	ground_force2_vx	ground_force2_vy	ground_force2_vz	ground_force2_px	ground_force2_py	ground_force2_pz	ground_torque1_x	ground_torque1_y	ground_torque1_z	ground_torque2_x	ground_torque2_y	ground_torque2_z	
6.37331000000000	12.02394800000000	706.30020000000002	48.22449600000000	0.22642600000000	0.00000000000000	0.11557000000000	0.00000000000000	0.00000000000000	0.00000000000000	0.00000000000000	0.00000000000000	0.00000000000000	0.00000000000000	18.95540900000000	0.00000000000000	0.00000000000000	0.00000000000000	0.00000000000000	
6.37498400000000	11.76234100000000	707.13348199999996	48.30226800000000	0.22580100000000	0.00000000000000	0.11552800000000	0.00000000000000	0.00000000000000	0.00000000000000	0.00000000000000	0.00000000000000	0.00000000000000	0.00000000000000	19.03040900000000	0.00000000000000	0.00000000000000	0.00000000000000	0.00000000000000	
6.37664500000000	11.48301300000000	707.99399000000005	48.38440800000000	0.22513800000000	0.00000000000000	0.11548700000000	0.00000000000000	0.00000000000000	0.00000000000000	0.00000000000000	0.00000000000000	0.00000000000000	0.00000000000000	19.10941200000000	0.00000000000000	0.00000000000000	0.00000000000000	0.00000000000000	
6.37831900000000	11.18542700000000	708.88079300000004	48.47067700000000	0.22443500000000	0.00000000000000	0.11544900000000	0.00000000000000	0.00000000000000	0.00000000000000	0.00000000000000	0.00000000000000	0.00000000000000	0.00000000000000	19.19230700000000	0.00000000000000	0.00000000000000	0.00000000000000	0.00000000000000	
6.37998400000000	10.86911200000000	709.79302700000005	48.56083500000000	0.22369300000000	0.00000000000000	0.11541200000000	0.00000000000000	0.00000000000000	0.00000000000000	0.00000000000000	0.00000000000000	0.00000000000000	0.00000000000000	19.27898100000000	0.00000000000000	0.00000000000000	0.00000000000000	0.00000000000000	
6.38164800000000	10.53366400000000	710.72989500000006	48.65464900000000	0.22290900000000	0.00000000000000	0.11537800000000	0.00000000000000	0.00000000000000	0.00000000000000	0.00000000000000	0.00000000000000	0.00000000000000	0.00000000000000	19.36932400000000	0.00000000000000	0.00000000000000	0.00000000000000	0.00000000000000	
6.38333400000000	10.17874600000000	711.69066899999996	48.75188600000000	0.22208600000000	0.00000000000000	0.11534500000000	0.00000000000000	0.00000000000000	0.00000000000000	0.00000000000000	0.00000000000000	0.00000000000000	0.00000000000000	19.46322600000000	0.00000000000000	0.00000000000000	0.00000000000000	0.00000000000000	
6.38498300000000	9.80409300000000	712.67469100000005	48.85231800000000	0.22122200000000	0.00000000000000	0.11531500000000	0.00000000000000	0.00000000000000	0.00000000000000	0.00000000000000	0.00000000000000	0.00000000000000	0.00000000000000	19.56058100000000	0.00000000000000	0.00000000000000	0.00000000000000	0.00000000000000	
6.38665200000000	9.40950600000000	713.68136800000002	48.95572000000000	0.22031900000000	0.00000000000000	0.11528600000000	0.00000000000000	0.00000000000000	0.00000000000000	0.00000000000000	0.00000000000000	0.00000000000000	0.00000000000000	19.66128200000000	0.00000000000000	0.00000000000000	0.00000000000000	0.00000000000000	
6.38832500000000	8.99486000000000	714.71017500000005	49.06187600000000	0.21937700000000	0.00000000000000	0.11526000000000	0.00000000000000	0.00000000000000	0.00000000000000	0.00000000000000	0.00000000000000	0.00000000000000	0.00000000000000	19.76522500000000	0.00000000000000	0.00000000000000	0.00000000000000	0.00000000000000	
6.38998000000000	8.56009700000000	715.76065300000005	49.17057100000000	0.21839700000000	0.00000000000000	0.11523500000000	0.00000000000000	0.00000000000000	0.00000000000000	0.00000000000000	0.00000000000000	0.00000000000000	0.00000000000000	19.87230700000000	0.00000000000000	0.00000000000000	0.00000000000000	0.00000000000000	
6.39164600000000	8.10522900000000	716.83240300000000	49.28159900000000	0.21737900000000	0.00000000000000	0.11521100000000	0.00000000000000	0.00000000000000	0.00000000000000	0.00000000000000	0.00000000000000	0.00000000000000	0.00000000000000	19.98242900000000	0.00000000000000	0.00000000000000	0.00000000000000	0.00000000000000	
6.39331500000000	7.63033600000000	717.92509199999995	49.39476100000000	0.21632700000000	0.00000000000000	0.11518900000000	0.00000000000000	0.00000000000000	0.00000000000000	0.00000000000000	0.00000000000000	0.00000000000000	0.00000000000000	20.09549300000000	0.00000000000000	0.00000000000000	0.00000000000000	0.00000000000000	
6.39498000000000	7.13556600000000	719.03844200000003	49.50986600000000	0.21524000000000	0.00000000000000	0.11516900000000	0.00000000000000	0.00000000000000	0.00000000000000	0.00000000000000	0.00000000000000	0.00000000000000	0.00000000000000	20.21140100000000	0.00000000000000	0.00000000000000	0.00000000000000	0.00000000000000	
6.39664800000000	6.62113200000000	720.17223000000001	49.62673000000000	0.21412100000000	0.00000000000000	0.11515000000000	0.00000000000000	0.00000000000000	0.00000000000000	0.00000000000000	0.00000000000000	0.00000000000000	0.00000000000000	20.33005800000000	0.00000000000000	0.00000000000000	0.00000000000000	0.00000000000000	
6.39831500000000	6.08731300000000	721.32628899999997	49.74517800000000	0.21297300000000	0.00000000000000	0.11513200000000	0.00000000000000	0.00000000000000	0.00000000000000	0.00000000000000	0.00000000000000	0.00000000000000	0.00000000000000	20.45137200000000	0.00000000000000	0.00000000000000	0.00000000000000	0.00000000000000	
6.39997800000000	5.53444900000000	722.50049799999999	49.86504300000000	0.21179600000000	0.00000000000000	0.11511500000000	0.00000000000000	0.00000000000000	0.00000000000000	0.00000000000000	0.00000000000000	0.00000000000000	0.00000000000000	20.57524900000000	0.00000000000000	0.00000000000000	0.00000000000000	0.00000000000000	
6.40164600000000	4.96293900000000	723.69478000000004	49.98617100000000	0.21059300000000	0.00000000000000	0.11509900000000	0.00000000000000	0.00000000000000	0.00000000000000	0.00000000000000	0.00000000000000	0.00000000000000	0.00000000000000	20.70159900000000	0.00000000000000	0.00000000000000	0.00000000000000	0.00000000000000	
6.40331800000000	4.37324300000000	724.90909999999997	50.10841300000000	0.20936700000000	0.00000000000000	0.11508400000000	0.00000000000000	0.00000000000000	0.00000000000000	0.00000000000000	0.00000000000000	0.00000000000000	0.00000000000000	20.83033200000000	0.00000000000000	0.00000000000000	0.00000000000000	0.00000000000000	
6.40498500000000	3.76587300000000	726.14345900000001	50.23163400000000	0.20812000000000	0.00000000000000	0.11506900000000	0.00000000000000	0.00000000000000	0.00000000000000	0.00000000000000	0.00000000000000	0.00000000000000	0.00000000000000	20.96135600000000	0.00000000000000	0.00000000000000	0.00000000000000	0.00000000000000	
6.40664300000000	3.14139400000000	727.39788899999996	50.35570900000000	0.20685500000000	0.00000000000000	0.11505500000000	0.00000000000000	0.00000000000000	0.00000000000000	0.00000000000000	0.00000000000000	0.00000000000000	0.00000000000000	21.09458300000000	0.00000000000000	0.00000000000000	0.00000000000000	0.00000000000000	
